<?xml version="1.0" standalone="no"?>
<!DOCTYPE svg PUBLIC "-//W3C//DTD SVG 20010904//EN"
 "http://www.w3.org/TR/2001/REC-SVG-20010904/DTD/svg10.dtd">
<svg version="1.0" xmlns="http://www.w3.org/2000/svg"
 width="511.000000pt" height="511.000000pt" viewBox="0 0 511.000000 511.000000"
 preserveAspectRatio="xMidYMid meet">
<metadata>
Created by potrace 1.14, written by Peter Selinger 2001-2017
</metadata>
<g transform="translate(0.000000,511.000000) scale(0.100000,-0.100000)"
fill="#000000" stroke="none">
<path d="M3388 4846 c-1 -2 -30 -6 -63 -9 -82 -8 -242 -43 -334 -74 -299 -100
-570 -335 -713 -618 -60 -117 -93 -220 -133 -406 -29 -136 -34 -308 -11 -363
28 -68 20 -67 641 -68 304 0 571 3 593 7 81 13 99 60 97 251 -1 126 -4 144
-23 176 -12 20 -32 39 -45 44 -12 5 -180 11 -374 14 l-351 5 21 50 c113 262
356 449 642 495 66 11 290 15 345 6 14 -2 45 -7 70 -11 44 -6 145 -36 185 -54
11 -5 47 -21 80 -36 127 -57 265 -164 357 -277 195 -239 267 -557 192 -844
-19 -75 -90 -224 -142 -301 -120 -177 -338 -327 -581 -400 -74 -22 -109 -26
-246 -29 -181 -4 -249 6 -390 56 -146 52 -322 148 -406 222 -14 13 -46 41 -70
62 -60 53 -209 162 -293 215 -113 70 -318 160 -406 177 -14 3 -51 12 -82 20
-137 35 -239 47 -398 48 -177 0 -268 -11 -445 -55 -535 -134 -958 -570 -1064
-1099 -6 -30 -14 -66 -16 -80 -19 -90 -25 -277 -13 -385 10 -90 44 -240 75
-335 112 -339 411 -671 744 -829 130 -61 189 -80 399 -128 126 -28 435 -38
570 -18 170 25 407 94 481 140 21 14 41 25 44 25 5 0 116 71 125 80 3 3 23 18
45 34 111 81 270 277 347 429 53 106 107 290 134 462 4 22 7 94 8 160 1 134
-10 164 -68 184 -31 12 -1128 16 -1183 5 -17 -3 -44 -19 -60 -36 -28 -29 -28
-30 -30 -179 -3 -167 6 -210 50 -243 27 -20 41 -21 340 -23 172 -1 333 -2 359
-3 l47 0 -34 -76 c-93 -204 -264 -357 -487 -436 -91 -32 -106 -35 -208 -45
-94 -8 -154 -8 -253 0 -360 32 -684 249 -841 564 -78 157 -105 280 -100 457 3
132 27 232 83 351 55 118 104 188 191 275 63 64 186 160 204 160 3 0 27 13 53
28 155 92 401 140 608 119 102 -11 119 -15 232 -52 173 -58 346 -156 468 -266
262 -236 550 -385 861 -448 228 -45 488 -48 674 -5 14 3 39 8 55 10 78 14 269
77 290 96 5 4 14 8 21 8 6 0 48 20 93 45 376 212 635 565 719 981 28 137 32
174 32 294 0 99 -2 125 -15 227 -4 24 -7 46 -7 50 0 5 -7 28 -14 53 -7 25 -15
56 -18 70 -9 47 -48 155 -84 230 -95 201 -265 407 -447 541 -44 33 -85 64 -92
69 -7 6 -15 10 -18 10 -3 0 -23 11 -43 25 -98 67 -322 142 -537 181 -77 14
-425 30 -437 20z"/>
</g>
</svg>
