<svg xmlns="http://www.w3.org/2000/svg" width="78.348" height="127.152" viewBox="0 0 78.348 127.152">
  <g id="Right_Arrow" data-name="Right Arrow" transform="translate(85 -32.924) rotate(90)">
    <path id="Path_15" data-name="Path 15" d="M140.036,82.5H52.964a17.311,17.311,0,0,1-10.312-3.274,17.935,17.935,0,0,1-6.829-18.085A17.311,17.311,0,0,1,41.4,51.868L84.933,13.52a17.5,17.5,0,0,1,23.134,0L151.6,51.868a17.311,17.311,0,0,1,5.574,9.273,17.934,17.934,0,0,1-6.829,18.085A17.311,17.311,0,0,1,140.036,82.5Z" fill="#1a1862"/>
    <path id="Path_16" data-name="Path 16" d="M96.5,11.652A14.991,14.991,0,0,0,86.585,15.4L43.049,53.744A15.578,15.578,0,0,0,39.9,57.528a14.219,14.219,0,0,0-1.631,4.151,15.436,15.436,0,0,0,5.864,15.53A14.219,14.219,0,0,0,48.1,79.245,15.578,15.578,0,0,0,52.964,80h87.072a15.574,15.574,0,0,0,4.868-.755,14.215,14.215,0,0,0,3.967-2.037,15.435,15.435,0,0,0,5.865-15.53,14.22,14.22,0,0,0-1.631-4.15,15.6,15.6,0,0,0-3.154-3.784L106.415,15.4A14.991,14.991,0,0,0,96.5,11.652m0-5a19.957,19.957,0,0,1,13.22,4.992l43.535,38.348C167.089,62.177,158.471,85,140.036,85H52.964c-18.435,0-27.053-22.823-13.22-35.008L83.28,11.644A19.955,19.955,0,0,1,96.5,6.652Z" fill="#fff"/>
  </g>
</svg>
